<?xml version="1.0" encoding="utf-8"?>
<svg xmlns="http://www.w3.org/2000/svg" xmlns:xlink="http://www.w3.org/1999/xlink"
	width="200px" height="200px" viewBox="0 0 100 100" y="0" x="0">
	<g style="transform-origin:50% 50% 0px;transform:rotate(0deg) scale(0.8);">
		<path fill="#77a4bd" d="M92.5 58.266L79.29 44.307 65.324 57.513l7.647.212a24.182 24.182 0 0 1-18.345 16.071c-6.356 1.244-12.815-.076-18.182-3.699l-6.257 9.277c5.922 3.994 12.749 6.068 19.739 6.068 2.269 0 4.558-.219 6.834-.661 13.77-2.677 24.558-13.132 27.731-26.737l8.009.222z"></path>
		<path fill="#a0c8d7" d="M43.241 15.219c-13.77 2.677-24.558 13.132-27.731 26.737l-8.01-.222 13.213 13.959 13.962-13.207-7.646-.212a24.182 24.182 0 0 1 18.345-16.071c6.359-1.24 12.817.078 18.182 3.699l6.257-9.277c-7.844-5.289-17.283-7.211-26.572-5.406z"></path>
	</g>
</svg>
